ffmpeg started on 2025-05-28 at 21:46:29
Report written to "D:\Convert\FFMetrics\reports\psnr_report-6.txt"
Log level: 32
Command line:
ffmpeg -hide_banner -nostdin -i "G:\\\xc0\xed\xe8\xec\xe5\\\xce\xed\xe3\xee\xe8\xed\xe3\xe8\\!_36_\xce\xf1\xe5\xed\xfc_2024\\JamClub\\\xcb\xfe\xe1\xee\xe2\xfc \xcc\xf3\xf0\xe0\xe8\\JamClub_Murai_no_Koi_12_1080p_HEVC.mkv" -i "G:\\\xc0\xed\xe8\xec\xe5\\\xce\xed\xe3\xee\xe8\xed\xe3\xe8\\!_36_\xce\xf1\xe5\xed\xfc_2024\\JamClub\\\xcb\xfe\xe1\xee\xe2\xfc \xcc\xf3\xf0\xe0\xe8\\JamClub_Murai_no_Koi_12_1080p.mp4" -lavfi "[0:v]settb=AVTB,setpts=PTS-STARTPTS,format=pix_fmts=yuv420p10,fps=24000/1001,scale=1920:1080:flags=bicubic[main];[1:v]settb=AVTB,setpts=PTS-STARTPTS,format=pix_fmts=yuv420p,fps=24000/1001,scale=1920:1080:flags=bicubic[ref];[main][ref]psnr=eof_action=endall:stats_file='D\\:/Convert/FFMetrics/logs/psnr_logfile-6.txt'" -f null -
Input #0, matroska,webm, from 'G:\Аниме\Онгоинги\!_36_Осень_2024\JamClub\Любовь Мураи\JamClub_Murai_no_Koi_12_1080p_HEVC.mkv':
  Metadata:
    COMPATIBLE_BRANDS: isomiso2avc1mp41
    MAJOR_BRAND     : isom
    MINOR_VERSION   : 512
    ENCODER         : Lavf61.7.100
  Duration: 00:24:04.31, start: -0.021000, bitrate: 1332 kb/s
  Stream #0:0: Video: hevc (Main 10), yuv420p10le(tv, bt709, progressive), 1920x1080 [SAR 1:1 DAR 16:9], 23.98 fps, 23.98 tbr, 1k tbn (default)
      Metadata:
        HANDLER_NAME    : VideoHandler
        VENDOR_ID       : [0][0][0][0]
        ENCODER         : Lavc61.19.100 libx265
        BPS             : 1134531
        DURATION        : 00:24:04.150708333
        NUMBER_OF_FRAMES: 34625
        NUMBER_OF_BYTES : 204804167
        _STATISTICS_WRITING_APP: mkvpropedit v66.0.0 ('Josie') 64-bit
        _STATISTICS_WRITING_DATE_UTC: 2025-05-28 14:03:50
        _STATISTICS_TAGS: BPS DURATION NUMBER_OF_FRAMES NUMBER_OF_BYTES
  Stream #0:1(eng): Audio: aac (LC), 48000 Hz, stereo, fltp (default)
      Metadata:
        HANDLER_NAME    : SoundHandler
        VENDOR_ID       : [0][0][0][0]
        ENCODER         : Lavc61.19.100 aac
        BPS             : 194482
        DURATION        : 00:24:04.291000000
        NUMBER_OF_FRAMES: 67702
        NUMBER_OF_BYTES : 35111077
        _STATISTICS_WRITING_APP: mkvpropedit v66.0.0 ('Josie') 64-bit
        _STATISTICS_WRITING_DATE_UTC: 2025-05-28 14:03:50
        _STATISTICS_TAGS: BPS DURATION NUMBER_OF_FRAMES NUMBER_OF_BYTES
Input #1, mov,mp4,m4a,3gp,3g2,mj2, from 'G:\Аниме\Онгоинги\!_36_Осень_2024\JamClub\Любовь Мураи\JamClub_Murai_no_Koi_12_1080p.mp4':
  Metadata:
    major_brand     : isom
    minor_version   : 512
    compatible_brands: isomiso2avc1mp41
    encoder         : Lavf60.16.100
  Duration: 00:24:04.29, start: 0.000000, bitrate: 4678 kb/s
  Stream #1:0[0x1](und): Video: h264 (High) (avc1 / 0x31637661), yuv420p(tv, bt709, progressive), 1920x1080 [SAR 1:1 DAR 16:9], 4480 kb/s, 23.98 fps, 23.98 tbr, 90k tbn (default)
      Metadata:
        handler_name    : VideoHandler
        vendor_id       : [0][0][0][0]
  Stream #1:1[0x2](eng): Audio: aac (LC) (mp4a / 0x6134706D), 48000 Hz, stereo, fltp, 191 kb/s (default)
      Metadata:
        handler_name    : SoundHandler
        vendor_id       : [0][0][0][0]
Stream mapping:
  Stream #0:0 (hevc) -> settb:default
  Stream #1:0 (h264) -> settb:default
  psnr:default -> Stream #0:0 (wrapped_avframe)
  Stream #0:1 -> #0:1 (aac (native) -> pcm_s16le (native))
Output #0, null, to 'pipe:':
  Metadata:
    COMPATIBLE_BRANDS: isomiso2avc1mp41
    MAJOR_BRAND     : isom
    MINOR_VERSION   : 512
    encoder         : Lavf61.7.100
  Stream #0:0: Video: wrapped_avframe, yuv420p10le(tv, bt709, progressive), 1920x1080 [SAR 1:1 DAR 16:9], q=2-31, 200 kb/s, 23.98 fps, 23.98 tbn
      Metadata:
        encoder         : Lavc61.19.100 wrapped_avframe
  Stream #0:1(eng): Audio: pcm_s16le, 48000 Hz, stereo, s16, 1536 kb/s (default)
      Metadata:
        HANDLER_NAME    : SoundHandler
        VENDOR_ID       : [0][0][0][0]
        _STATISTICS_TAGS: BPS DURATION NUMBER_OF_FRAMES NUMBER_OF_BYTES
        BPS             : 194482
        DURATION        : 00:24:04.291000000
        NUMBER_OF_FRAMES: 67702
        NUMBER_OF_BYTES : 35111077
        _STATISTICS_WRITING_APP: mkvpropedit v66.0.0 ('Josie') 64-bit
        _STATISTICS_WRITING_DATE_UTC: 2025-05-28 14:03:50
        encoder         : Lavc61.19.100 pcm_s16le
frame=  118 fps=0.0 q=-0.0 size=N/A time=00:00:04.92 bitrate=N/A speed=9.54x    frame=  284 fps=274 q=-0.0 size=N/A time=00:00:11.84 bitrate=N/A speed=11.4x    frame=  484 fps=313 q=-0.0 size=N/A time=00:00:20.18 bitrate=N/A speed=13.1x    frame=  764 fps=369 q=-0.0 size=N/A time=00:00:31.86 bitrate=N/A speed=15.4x    frame= 1039 fps=403 q=-0.0 size=N/A time=00:00:43.33 bitrate=N/A speed=16.8x    frame= 1272 fps=411 q=-0.0 size=N/A time=00:00:53.05 bitrate=N/A speed=17.1x    frame= 1489 fps=412 q=-0.0 size=N/A time=00:01:02.10 bitrate=N/A speed=17.2x    frame= 1751 fps=425 q=-0.0 size=N/A time=00:01:13.03 bitrate=N/A speed=17.7x    frame= 2022 fps=435 q=-0.0 size=N/A time=00:01:24.33 bitrate=N/A speed=18.2x    frame= 2279 fps=442 q=-0.0 size=N/A time=00:01:35.05 bitrate=N/A speed=18.4x    frame= 2559 fps=451 q=-0.0 size=N/A time=00:01:46.73 bitrate=N/A speed=18.8x    frame= 2822 fps=456 q=-0.0 size=N/A time=00:01:57.70 bitrate=N/A speed=  19x    frame= 3092 fps=461 q=-0.0 size=N/A time=00:02:08.96 bitrate=N/A speed=19.2x    frame= 3373 fps=468 q=-0.0 size=N/A time=00:02:20.68 bitrate=N/A speed=19.5x    frame= 3646 fps=471 q=-0.0 size=N/A time=00:02:32.06 bitrate=N/A speed=19.7x    frame= 3877 fps=470 q=-0.0 size=N/A time=00:02:41.70 bitrate=N/A speed=19.6x    frame= 4166 fps=475 q=-0.0 size=N/A time=00:02:53.75 bitrate=N/A speed=19.8x    frame= 4424 fps=477 q=-0.0 size=N/A time=00:03:04.51 bitrate=N/A speed=19.9x    frame= 4709 fps=481 q=-0.0 size=N/A time=00:03:16.40 bitrate=N/A speed=  20x    frame= 4973 fps=483 q=-0.0 size=N/A time=00:03:27.41 bitrate=N/A speed=20.1x    frame= 5183 fps=479 q=-0.0 size=N/A time=00:03:36.17 bitrate=N/A speed=  20x    frame= 5447 fps=480 q=-0.0 size=N/A time=00:03:47.18 bitrate=N/A speed=  20x    frame= 5690 fps=480 q=-0.0 size=N/A time=00:03:57.32 bitrate=N/A speed=  20x    frame= 5918 fps=478 q=-0.0 size=N/A time=00:04:06.82 bitrate=N/A speed=19.9x    frame= 6192 fps=481 q=-0.0 size=N/A time=00:04:18.25 bitrate=N/A speed=  20x    frame= 6470 fps=483 q=-0.0 size=N/A time=00:04:29.85 bitrate=N/A speed=20.1x    frame= 6753 fps=485 q=-0.0 size=N/A time=00:04:41.65 bitrate=N/A speed=20.2x    frame= 7005 fps=485 q=-0.0 size=N/A time=00:04:52.16 bitrate=N/A speed=20.2x    frame= 7257 fps=485 q=-0.0 size=N/A time=00:05:02.67 bitrate=N/A speed=20.2x    frame= 7499 fps=485 q=-0.0 size=N/A time=00:05:12.77 bitrate=N/A speed=20.2x    frame= 7739 fps=484 q=-0.0 size=N/A time=00:05:22.78 bitrate=N/A speed=20.2x    frame= 7999 fps=485 q=-0.0 size=N/A time=00:05:33.62 bitrate=N/A speed=20.2x    frame= 8271 fps=486 q=-0.0 size=N/A time=00:05:44.96 bitrate=N/A speed=20.3x    frame= 8534 fps=487 q=-0.0 size=N/A time=00:05:55.93 bitrate=N/A speed=20.3x    frame= 8818 fps=489 q=-0.0 size=N/A time=00:06:07.78 bitrate=N/A speed=20.4x    frame= 9062 fps=488 q=-0.0 size=N/A time=00:06:17.96 bitrate=N/A speed=20.4x    frame= 9323 fps=489 q=-0.0 size=N/A time=00:06:28.84 bitrate=N/A speed=20.4x    frame= 9596 fps=490 q=-0.0 size=N/A time=00:06:40.23 bitrate=N/A speed=20.4x    frame= 9847 fps=490 q=-0.0 size=N/A time=00:06:50.70 bitrate=N/A speed=20.4x    frame=10107 fps=490 q=-0.0 size=N/A time=00:07:01.54 bitrate=N/A speed=20.4x    frame=10373 fps=491 q=-0.0 size=N/A time=00:07:12.64 bitrate=N/A speed=20.5x    frame=10654 fps=492 q=-0.0 size=N/A time=00:07:24.36 bitrate=N/A speed=20.5x    frame=10917 fps=493 q=-0.0 size=N/A time=00:07:35.32 bitrate=N/A speed=20.5x    frame=11142 fps=491 q=-0.0 size=N/A time=00:07:44.71 bitrate=N/A speed=20.5x    frame=11294 fps=487 q=-0.0 size=N/A time=00:07:51.05 bitrate=N/A speed=20.3x    frame=11488 fps=484 q=-0.0 size=N/A time=00:07:59.14 bitrate=N/A speed=20.2x    frame=11760 fps=485 q=-0.0 size=N/A time=00:08:10.49 bitrate=N/A speed=20.2x    frame=12023 fps=486 q=-0.0 size=N/A time=00:08:21.45 bitrate=N/A speed=20.3x    frame=12263 fps=485 q=-0.0 size=N/A time=00:08:31.46 bitrate=N/A speed=20.2x    frame=12504 fps=485 q=-0.0 size=N/A time=00:08:41.52 bitrate=N/A speed=20.2x    frame=12794 fps=486 q=-0.0 size=N/A time=00:08:53.61 bitrate=N/A speed=20.3x    frame=13068 fps=488 q=-0.0 size=N/A time=00:09:05.04 bitrate=N/A speed=20.3x    frame=13316 fps=487 q=-0.0 size=N/A time=00:09:15.38 bitrate=N/A speed=20.3x    frame=13584 fps=488 q=-0.0 size=N/A time=00:09:26.56 bitrate=N/A speed=20.3x    frame=13850 fps=488 q=-0.0 size=N/A time=00:09:37.66 bitrate=N/A speed=20.4x    frame=14091 fps=488 q=-0.0 size=N/A time=00:09:47.71 bitrate=N/A speed=20.4x    frame=14313 fps=487 q=-0.0 size=N/A time=00:09:56.97 bitrate=N/A speed=20.3x    frame=14533 fps=486 q=-0.0 size=N/A time=00:10:06.14 bitrate=N/A speed=20.3x    frame=14778 fps=486 q=-0.0 size=N/A time=00:10:16.36 bitrate=N/A speed=20.3x    frame=15058 fps=487 q=-0.0 size=N/A time=00:10:28.04 bitrate=N/A speed=20.3x    frame=15281 fps=486 q=-0.0 size=N/A time=00:10:37.34 bitrate=N/A speed=20.3x    frame=15449 fps=483 q=-0.0 size=N/A time=00:10:44.35 bitrate=N/A speed=20.2x    frame=15589 fps=480 q=-0.0 size=N/A time=00:10:50.19 bitrate=N/A speed=  20x    frame=15744 fps=477 q=-0.0 size=N/A time=00:10:56.65 bitrate=N/A speed=19.9x    frame=15910 fps=475 q=-0.0 size=N/A time=00:11:03.57 bitrate=N/A speed=19.8x    frame=16096 fps=473 q=-0.0 size=N/A time=00:11:11.33 bitrate=N/A speed=19.7x    frame=16276 fps=471 q=-0.0 size=N/A time=00:11:18.84 bitrate=N/A speed=19.6x    frame=16470 fps=470 q=-0.0 size=N/A time=00:11:26.93 bitrate=N/A speed=19.6x    frame=16632 fps=467 q=-0.0 size=N/A time=00:11:33.69 bitrate=N/A speed=19.5x    frame=16766 fps=465 q=-0.0 size=N/A time=00:11:39.28 bitrate=N/A speed=19.4x    frame=16942 fps=463 q=-0.0 size=N/A time=00:11:46.62 bitrate=N/A speed=19.3x    frame=17125 fps=461 q=-0.0 size=N/A time=00:11:54.25 bitrate=N/A speed=19.2x    frame=17328 fps=460 q=-0.0 size=N/A time=00:12:02.72 bitrate=N/A speed=19.2x    frame=17596 fps=461 q=-0.0 size=N/A time=00:12:13.89 bitrate=N/A speed=19.2x    frame=17856 fps=461 q=-0.0 size=N/A time=00:12:24.74 bitrate=N/A speed=19.2x    frame=18142 fps=463 q=-0.0 size=N/A time=00:12:36.67 bitrate=N/A speed=19.3x    frame=18363 fps=462 q=-0.0 size=N/A time=00:12:45.89 bitrate=N/A speed=19.3x    frame=18660 fps=464 q=-0.0 size=N/A time=00:12:58.27 bitrate=N/A speed=19.3x    frame=18913 fps=464 q=-0.0 size=N/A time=00:13:08.82 bitrate=N/A speed=19.4x    frame=19170 fps=464 q=-0.0 size=N/A time=00:13:19.54 bitrate=N/A speed=19.4x    frame=19449 fps=465 q=-0.0 size=N/A time=00:13:31.18 bitrate=N/A speed=19.4x    frame=19687 fps=465 q=-0.0 size=N/A time=00:13:41.11 bitrate=N/A speed=19.4x    frame=19938 fps=465 q=-0.0 size=N/A time=00:13:51.58 bitrate=N/A speed=19.4x    frame=20196 fps=466 q=-0.0 size=N/A time=00:14:02.34 bitrate=N/A speed=19.4x    frame=20493 fps=467 q=-0.0 size=N/A time=00:14:14.72 bitrate=N/A speed=19.5x    frame=20755 fps=468 q=-0.0 size=N/A time=00:14:25.65 bitrate=N/A speed=19.5x    frame=21024 fps=468 q=-0.0 size=N/A time=00:14:36.87 bitrate=N/A speed=19.5x    frame=21312 fps=469 q=-0.0 size=N/A time=00:14:48.88 bitrate=N/A speed=19.6x    frame=21577 fps=470 q=-0.0 size=N/A time=00:14:59.94 bitrate=N/A speed=19.6x    frame=21868 fps=471 q=-0.0 size=N/A time=00:15:12.07 bitrate=N/A speed=19.6x    frame=22148 fps=472 q=-0.0 size=N/A time=00:15:23.75 bitrate=N/A speed=19.7x    frame=22371 fps=471 q=-0.0 size=N/A time=00:15:33.05 bitrate=N/A speed=19.7x    frame=22651 fps=472 q=-0.0 size=N/A time=00:15:44.73 bitrate=N/A speed=19.7x    frame=22936 fps=473 q=-0.0 size=N/A time=00:15:56.62 bitrate=N/A speed=19.7x    frame=23213 fps=474 q=-0.0 size=N/A time=00:16:08.17 bitrate=N/A speed=19.8x    frame=23483 fps=474 q=-0.0 size=N/A time=00:16:19.43 bitrate=N/A speed=19.8x    frame=23717 fps=474 q=-0.0 size=N/A time=00:16:29.19 bitrate=N/A speed=19.8x    frame=23944 fps=474 q=-0.0 size=N/A time=00:16:38.66 bitrate=N/A speed=19.7x    frame=24205 fps=474 q=-0.0 size=N/A time=00:16:49.55 bitrate=N/A speed=19.8x    frame=24462 fps=474 q=-0.0 size=N/A time=00:17:00.26 bitrate=N/A speed=19.8x    frame=24750 fps=475 q=-0.0 size=N/A time=00:17:12.28 bitrate=N/A speed=19.8x    frame=25035 fps=476 q=-0.0 size=N/A time=00:17:24.16 bitrate=N/A speed=19.8x    frame=25306 fps=476 q=-0.0 size=N/A time=00:17:35.47 bitrate=N/A speed=19.9x    frame=25556 fps=476 q=-0.0 size=N/A time=00:17:45.89 bitrate=N/A speed=19.9x    frame=25803 fps=476 q=-0.0 size=N/A time=00:17:56.20 bitrate=N/A speed=19.9x    frame=26005 fps=476 q=-0.0 size=N/A time=00:18:04.62 bitrate=N/A speed=19.8x    frame=26217 fps=475 q=-0.0 size=N/A time=00:18:13.46 bitrate=N/A speed=19.8x    frame=26469 fps=475 q=-0.0 size=N/A time=00:18:23.97 bitrate=N/A speed=19.8x    frame=26715 fps=475 q=-0.0 size=N/A time=00:18:34.23 bitrate=N/A speed=19.8x    frame=26959 fps=475 q=-0.0 size=N/A time=00:18:44.41 bitrate=N/A speed=19.8x    frame=27199 fps=475 q=-0.0 size=N/A time=00:18:54.42 bitrate=N/A speed=19.8x    frame=27428 fps=475 q=-0.0 size=N/A time=00:19:03.97 bitrate=N/A speed=19.8x    frame=27646 fps=474 q=-0.0 size=N/A time=00:19:13.06 bitrate=N/A speed=19.8x    frame=27873 fps=474 q=-0.0 size=N/A time=00:19:22.53 bitrate=N/A speed=19.8x    frame=28108 fps=474 q=-0.0 size=N/A time=00:19:32.33 bitrate=N/A speed=19.8x    frame=28337 fps=474 q=-0.0 size=N/A time=00:19:41.88 bitrate=N/A speed=19.8x    frame=28586 fps=474 q=-0.0 size=N/A time=00:19:52.27 bitrate=N/A speed=19.8x    frame=28837 fps=474 q=-0.0 size=N/A time=00:20:02.74 bitrate=N/A speed=19.8x    frame=29082 fps=474 q=-0.0 size=N/A time=00:20:12.96 bitrate=N/A speed=19.8x    frame=29304 fps=473 q=-0.0 size=N/A time=00:20:22.22 bitrate=N/A speed=19.7x    frame=29550 fps=473 q=-0.0 size=N/A time=00:20:32.48 bitrate=N/A speed=19.7x    frame=29799 fps=474 q=-0.0 size=N/A time=00:20:42.86 bitrate=N/A speed=19.7x    frame=30070 fps=474 q=-0.0 size=N/A time=00:20:54.16 bitrate=N/A speed=19.8x    frame=30321 fps=474 q=-0.0 size=N/A time=00:21:04.63 bitrate=N/A speed=19.8x    frame=30576 fps=474 q=-0.0 size=N/A time=00:21:15.27 bitrate=N/A speed=19.8x    frame=30821 fps=474 q=-0.0 size=N/A time=00:21:25.49 bitrate=N/A speed=19.8x    frame=31061 fps=474 q=-0.0 size=N/A time=00:21:35.50 bitrate=N/A speed=19.8x    frame=31329 fps=474 q=-0.0 size=N/A time=00:21:46.68 bitrate=N/A speed=19.8x    frame=31610 fps=475 q=-0.0 size=N/A time=00:21:58.40 bitrate=N/A speed=19.8x    frame=31863 fps=475 q=-0.0 size=N/A time=00:22:08.95 bitrate=N/A speed=19.8x    frame=32105 fps=475 q=-0.0 size=N/A time=00:22:19.04 bitrate=N/A speed=19.8x    frame=32358 fps=475 q=-0.0 size=N/A time=00:22:29.59 bitrate=N/A speed=19.8x    frame=32558 fps=475 q=-0.0 size=N/A time=00:22:37.93 bitrate=N/A speed=19.8x    frame=32755 fps=474 q=-0.0 size=N/A time=00:22:46.15 bitrate=N/A speed=19.8x    frame=32962 fps=473 q=-0.0 size=N/A time=00:22:54.79 bitrate=N/A speed=19.7x    frame=33167 fps=473 q=-0.0 size=N/A time=00:23:03.34 bitrate=N/A speed=19.7x    frame=33361 fps=472 q=-0.0 size=N/A time=00:23:11.43 bitrate=N/A speed=19.7x    frame=33538 fps=471 q=-0.0 size=N/A time=00:23:18.81 bitrate=N/A speed=19.7x    frame=33728 fps=470 q=-0.0 size=N/A time=00:23:26.73 bitrate=N/A speed=19.6x    frame=33899 fps=469 q=-0.0 size=N/A time=00:23:33.87 bitrate=N/A speed=19.6x    frame=34073 fps=468 q=-0.0 size=N/A time=00:23:41.12 bitrate=N/A speed=19.5x    frame=34232 fps=467 q=-0.0 size=N/A time=00:23:47.75 bitrate=N/A speed=19.5x    frame=34383 fps=466 q=-0.0 size=N/A time=00:23:54.05 bitrate=N/A speed=19.4x    frame=34517 fps=465 q=-0.0 size=N/A time=00:23:59.64 bitrate=N/A speed=19.4x    [Parsed_psnr_10 @ 0000024e8c44ce80] PSNR y:47.382390 u:49.675269 v:49.892239 average:48.045090 min:37.690439 max:inf
[out#0/null @ 0000024e8bd206c0] video:14878KiB audio:270808KiB subtitle:0KiB other streams:0KiB global headers:0KiB muxing overhead: unknown
frame=34625 fps=465 q=-0.0 Lsize=N/A time=00:24:04.15 bitrate=N/A speed=19.4x    
